<svg width="900" height="900" viewBox="0 0 900 900" fill="none" xmlns="http://www.w3.org/2000/svg">
<g clip-path="url(#clip0_3372_2)">
<circle cx="582.5" cy="266.5" r="49.5" fill="#EE2947"/>
<path d="M422.497 217.499C534.349 217.499 627.458 297.087 648.355 403.102C728.252 408.633 791.245 474.395 791.245 555.519C791.245 640.331 722.411 709.161 637.599 709.161H238.123C136.411 709.161 53.7495 626.503 53.7495 524.788C53.7495 429.836 125.655 351.477 218.149 341.644C256.561 267.895 333.691 217.499 422.497 217.499Z" fill="url(#paint0_linear_3372_2)"/>
<path d="M567.692 493.512L647.814 433.45C742.785 362.183 784.824 218.473 763.589 101.718C646.795 80.4826 503.085 122.522 431.857 217.493L371.794 297.615M567.692 493.512L430.564 591.461L273.846 434.743L371.794 297.615M567.692 493.512V598.004C567.692 631.913 556.694 664.907 536.348 692.035L508.922 728.589L469.743 689.41M371.794 297.615H267.303C233.394 297.615 200.399 308.613 173.272 328.959L136.718 356.384L175.897 395.564M313.025 650.23L175.897 689.41L221.58 552.281M587.281 317.205C597.672 317.205 607.638 313.077 614.985 305.729C622.333 298.382 626.461 288.416 626.461 278.025C626.461 267.634 622.333 257.669 614.985 250.321C607.638 242.974 597.672 238.846 587.281 238.846C576.89 238.846 566.925 242.974 559.577 250.321C552.23 257.669 548.102 267.634 548.102 278.025C548.102 288.416 552.23 298.382 559.577 305.729C566.925 313.077 576.89 317.205 587.281 317.205Z" stroke="url(#paint1_linear_3372_2)" stroke-width="66.6667" stroke-linecap="round" stroke-linejoin="round"/>
</g>
<defs>
<linearGradient id="paint0_linear_3372_2" x1="745" y1="72" x2="422" y2="970.5" gradientUnits="userSpaceOnUse">
<stop stop-color="#FFB9C2"/>
<stop offset="1" stop-color="white" stop-opacity="0"/>
</linearGradient>
<linearGradient id="paint1_linear_3372_2" x1="452.851" y1="96.323" x2="452.851" y2="728.589" gradientUnits="userSpaceOnUse">
<stop stop-color="#F32F48"/>
<stop offset="1" stop-color="#D70F40"/>
</linearGradient>
<clipPath id="clip0_3372_2">
<rect width="900" height="900" fill="white"/>
</clipPath>
</defs>
</svg>
