<svg width="512" height="512" viewBox="0 0 512 512" fill="none" xmlns="http://www.w3.org/2000/svg">
<g clip-path="url(#clip0_3369_29)">
<path d="M256 512C397.385 512 512 397.385 512 256C512 114.615 397.385 0 256 0C114.615 0 0 114.615 0 256C0 397.385 114.615 512 256 512Z" fill="#2E324E"/>
<path d="M256 275C300.183 275 336 239.183 336 195C336 150.817 300.183 115 256 115C211.817 115 176 150.817 176 195C176 239.183 211.817 275 256 275Z" fill="white"/>
<path d="M391 461.489C391 461.489 391 501.524 391 413.07C391 324.615 256.5 323 256.5 323C256.5 323 121 324.077 121 413.07C121 501.524 121 465.917 121 465.917L391 461.489Z" fill="#E64A51"/>
<path fill-rule="evenodd" clip-rule="evenodd" d="M390.999 473.553C351.808 497.924 305.548 512 256 512C206.453 512 160.193 497.924 121.001 473.553C121.301 400.881 200.597 400 200.597 400H311.403C311.403 400 390.698 401.321 390.999 473.553Z" fill="#E64A51"/>
</g>
<defs>
<clipPath id="clip0_3369_29">
<rect width="512" height="512" fill="white"/>
</clipPath>
</defs>
</svg>
